<svg id="レイヤー_1" data-name="レイヤー 1" xmlns="http://www.w3.org/2000/svg" viewBox="0 0 841.89 595.28"><defs><style>.cls-1{fill:#e83828;}</style></defs><title>日南ハッカソン1</title><path class="cls-1" d="M181.67,302.06a3,3,0,0,0-2,0,3.28,3.28,0,0,0-2.11,2.12,3,3,0,0,0-.18,1,3.05,3.05,0,0,0,.18,1,3.27,3.27,0,0,0,2.11,2.11,3,3,0,0,0,2,0,3.27,3.27,0,0,0,2.11-2.11,3,3,0,0,0,.17-1,3,3,0,0,0-.17-1A3.28,3.28,0,0,0,181.67,302.06Z"/><path class="cls-1" d="M200.34,301.89a3.26,3.26,0,0,0-3.11,2.29h-6.59a10,10,0,0,0-9-9v-3.33a3.29,3.29,0,1,0-2,0v3.33a10,10,0,0,0-9,9h-5.55a4.28,4.28,0,1,0,0,2h5.55a10,10,0,0,0,9,9v2.28a4.28,4.28,0,1,0,2,0v-2.28a10,10,0,0,0,9-9h6.59a3.28,3.28,0,1,0,3.11-4.29Zm-11.65,3.29a8.26,8.26,0,0,1-.07,1,8,8,0,0,1-7,6.95,7.18,7.18,0,0,1-2,0,8,8,0,0,1-6.95-6.95,8.26,8.26,0,0,1-.07-1,8.12,8.12,0,0,1,.07-1,8,8,0,0,1,6.95-7,8.36,8.36,0,0,1,2,0,8,8,0,0,1,7,7A8.12,8.12,0,0,1,188.69,305.18Zm-25.41,0a2.29,2.29,0,0,1-4.57,0,2.3,2.3,0,0,1,2.29-2.29,2.27,2.27,0,0,1,2,1.29A2.23,2.23,0,0,1,163.28,305.18ZM183,321.59a2.29,2.29,0,1,1-3.28-2,2.2,2.2,0,0,1,2,0A2.29,2.29,0,0,1,183,321.59Z"/><path class="cls-1" d="M214.2,264.92a6.08,6.08,0,0,0-12.07-1h-32a17.91,17.91,0,0,0-17.89,17.9v61.51a4.28,4.28,0,1,0,5.15,5.16H205a3.28,3.28,0,1,0,4.11-4.11V270.91A6.08,6.08,0,0,0,214.2,264.92Zm-58.94,83.57a2.26,2.26,0,0,1-2,1.28,2.28,2.28,0,0,1-1-4.33,2.38,2.38,0,0,1,1-.24,2.41,2.41,0,0,1,1,.24,2.3,2.3,0,0,1,1,1.05,2.2,2.2,0,0,1,0,2Zm51.86-4.11a3.25,3.25,0,0,0-2.11,2.11H157.37a4.31,4.31,0,0,0-3.15-3.16V281.82a15.92,15.92,0,0,1,15.89-15.9h32a6.08,6.08,0,0,0,5,5Zm1-75.38a3.77,3.77,0,0,1-1-.14,4.09,4.09,0,0,1-3.07-3.94,4.22,4.22,0,0,1,.13-1,4.07,4.07,0,1,1,4.94,4.94A3.66,3.66,0,0,1,208.12,269Z"/><path class="cls-1" d="M278,306.31a3.28,3.28,0,1,0,0-2h-4a1,1,0,0,0,0,2Z"/><path class="cls-1" d="M292.5,277.51a6.08,6.08,0,0,0-6,5.08H258.8V265.88h30.58a3.28,3.28,0,1,0,0-2H258.8v-13a3.28,3.28,0,1,0-2,0v13H227.26a4.29,4.29,0,1,0,0,2H256.8v16.71H226.22a3.28,3.28,0,1,0-4.11,4.11v56.09a4.28,4.28,0,1,0,2,0V286.7a3.27,3.27,0,0,0,2.11-2.11h60.29a6.09,6.09,0,0,0,5,5v36a15.9,15.9,0,0,1-12.88,15.6,3.28,3.28,0,1,0,.19,2,17.92,17.92,0,0,0,14.69-17.6v-36a6.08,6.08,0,0,0-1-12.07Zm-69.39-10.34a2.29,2.29,0,1,1,2-3.29,2.27,2.27,0,0,1,.24,1,2.23,2.23,0,0,1-.24,1A2.27,2.27,0,0,1,223.11,267.17Zm2.28,79.77a2.29,2.29,0,1,1-3.28-2,2.2,2.2,0,0,1,2,0A2.26,2.26,0,0,1,225.39,346.94Zm68.11-59.41a4.16,4.16,0,0,1-1,.14,4.15,4.15,0,0,1-3.94-3.08,4.16,4.16,0,0,1-.14-1,4.08,4.08,0,1,1,5.08,3.94Z"/><path class="cls-1" d="M258.8,341.62V322h21.9a4.29,4.29,0,1,0,0-2H258.8V306.31H266a1,1,0,0,0,.34-.07l.1-.05.21-.13a.6.6,0,0,1,.08-.08,1,1,0,0,0,.14-.22.35.35,0,0,0,.05-.08v0l2.14-5.81.14,0a3.32,3.32,0,1,0-2-.71l-1.9,5.15H254.81a6.09,6.09,0,1,0-9,0h-9.34a3.29,3.29,0,1,0,0,2H256.8V320H234.87a3.28,3.28,0,1,0,0,2H256.8v19.62a3.29,3.29,0,1,0,2,0Zm26.05-22.91a2.29,2.29,0,1,1-2,3.29,2.2,2.2,0,0,1,0-2A2.28,2.28,0,0,1,284.85,318.71Zm-38.62-18.48a4.08,4.08,0,1,1,4.08,4.08A4.08,4.08,0,0,1,246.23,300.23Z"/><path class="cls-1" d="M329.38,300.58a34.65,34.65,0,0,0,.36-4.89V280.15a3.17,3.17,0,1,0-2,0v15.54a33.24,33.24,0,0,1-.32,4.47h-.24a5.89,5.89,0,0,0-3.27,10.79,32.62,32.62,0,0,1-3.27,5l-13.43,16.79a4,4,0,0,0-1.74-.4,4.17,4.17,0,1,0,4.17,4.17,4.11,4.11,0,0,0-.87-2.52l13.43-16.79a34.24,34.24,0,0,0,3.54-5.41,6.17,6.17,0,0,0,1.44.18,5.89,5.89,0,0,0,2.2-11.36Zm-21.74,35.9a2.17,2.17,0,1,1-2.17-2.17,1.86,1.86,0,0,1,.42.05,2.19,2.19,0,0,1,1.75,2.12Zm19.54-26.54a4.36,4.36,0,0,1-.52-.05,4,4,0,0,1-1.85-.77,3.88,3.88,0,0,1,2.26-7h.11a3.93,3.93,0,0,1,1.84.48,3.88,3.88,0,0,1-1.84,7.31Z"/><path class="cls-1" d="M382.24,331.57h-.08c-7.06-19.21-18.84-41.77-23.44-50.34a4.1,4.1,0,0,0,1.37-3.06,4.17,4.17,0,1,0-4.17,4.17,4.1,4.1,0,0,0,1.05-.15c4.58,8.53,16.29,31,23.31,50.06a3.15,3.15,0,1,0,2-.69Zm-26.32-51.22a2.17,2.17,0,1,1,2.17-2.17,2.19,2.19,0,0,1-.37,1.21,2.15,2.15,0,0,1-1.75.95Z"/><path class="cls-1" d="M627.84,283.4h4.92a5.89,5.89,0,0,0,11.61,0h6a3.17,3.17,0,1,0,0-2h-6a5.89,5.89,0,0,0-11.61,0h-4.92a4.17,4.17,0,1,0,0,2Zm-4-3.17a2.17,2.17,0,0,1,1.91,1.17,2.13,2.13,0,0,1,0,2,2.16,2.16,0,1,1-1.91-3.17Zm10.86,2.17a3.66,3.66,0,0,1,.15-1,3.87,3.87,0,0,1,7.49,0,3.41,3.41,0,0,1,0,2,3.87,3.87,0,0,1-7.49,0A3.66,3.66,0,0,1,634.67,282.4Z"/><path class="cls-1" d="M688.79,290.24a3.16,3.16,0,0,0-2.33,5.29l-11.31,20.35a47.73,47.73,0,0,1-38.32,24.47l-7.34.54a3.17,3.17,0,1,0,.14,2l7.35-.54a49.7,49.7,0,0,0,39.92-25.48l11.31-20.35a3.68,3.68,0,0,0,.58.06,3.17,3.17,0,1,0,0-6.33Z"/><path class="cls-1" d="M558.24,300a3.17,3.17,0,1,0,3.16-3.16c-.12,0-.23,0-.34,0a158.69,158.69,0,0,0-13.93-23.74,3.28,3.28,0,1,0-1.61,1.18,156.8,156.8,0,0,1,13.72,23.39A3.13,3.13,0,0,0,558.24,300Z"/><path class="cls-1" d="M601.33,265.08a3.16,3.16,0,0,0-1,6.16v6.54a63,63,0,0,1-8.58,31.86,5.89,5.89,0,0,0-6.48,9.12,63.3,63.3,0,0,1-9,8.72L557.5,342.26a4.12,4.12,0,0,0-2.54-.89,4.19,4.19,0,1,0,3.78,2.45l18.73-14.77a66,66,0,0,0,9.24-8.9,5.89,5.89,0,0,0,6.82-9.59,65.09,65.09,0,0,0,8.8-32.78v-6.54a3.16,3.16,0,0,0-1-6.16Zm-44.21,80.46a2.17,2.17,0,1,1-2.16-2.17,2,2,0,0,1,.88.2,2.13,2.13,0,0,1,1.24,1.57A1.75,1.75,0,0,1,557.12,345.54Zm36.79-30.27a3.91,3.91,0,0,1-3.9,3.9,3.81,3.81,0,0,1-2-.56,4,4,0,0,1-1.41-1.46,3.85,3.85,0,0,1-.5-1.88,3.9,3.9,0,0,1,3.89-3.89,3.51,3.51,0,0,1,.66.07,3.91,3.91,0,0,1,1.83.85A3.87,3.87,0,0,1,593.91,315.27Z"/><path class="cls-1" d="M520.34,282a5.91,5.91,0,0,0-5.81,4.9H487.61V265.16a4.17,4.17,0,1,0-2,0v21.72H461.54a3.16,3.16,0,1,0,0,2h24.07v6.5A54,54,0,0,1,478,323.07l-10.74,18a3,3,0,0,0-.68-.08,3.2,3.2,0,1,0,2.4,1.12l10.74-18a56,56,0,0,0,7.93-28.72v-6.5h26.92a5.9,5.9,0,0,0,4.81,4.8v28.87c0,12.2-5.86,19.48-15.67,19.48h-2.81a3.16,3.16,0,1,0,0,2h2.81c8.54,0,17.67-5.65,17.67-21.48V293.68a5.89,5.89,0,0,0-1-11.7Zm-35.9-20.85a2.17,2.17,0,1,1,3.17,1.91,2.24,2.24,0,0,1-1,.25,2.21,2.21,0,0,1-1-.25A2.17,2.17,0,0,1,484.44,261.13Zm36.9,30.5a4.23,4.23,0,0,1-1,.14,4.09,4.09,0,0,1-1-.14,3.9,3.9,0,0,1-2.75-2.75,3.72,3.72,0,0,1-.15-1,3.66,3.66,0,0,1,.15-1,3.88,3.88,0,1,1,4.75,4.75Z"/><path class="cls-1" d="M412.33,310.38a5.9,5.9,0,1,0-5.89,5.89A5.9,5.9,0,0,0,412.33,310.38Zm-5.89-3.9a3.9,3.9,0,1,1-3.9,3.9A3.9,3.9,0,0,1,406.44,306.48Z"/><path class="cls-1" d="M436.07,299.43a3.16,3.16,0,0,0-1,6.16v1.28c0,.14.64,13.24-9,22.72a156.41,156.41,0,0,1-13.12,10.68,4.14,4.14,0,1,0,1.52,3.19,4.22,4.22,0,0,0-.32-1.59A156,156,0,0,0,427.44,331c10.35-10.14,9.67-23.69,9.63-24.2v-1.23a3.16,3.16,0,0,0-1-6.16Zm-23.63,44a2.17,2.17,0,1,1-2.17-2.17,2.18,2.18,0,0,1,2.14,1.85C412.42,343.25,412.44,343.35,412.44,343.46Z"/><path class="cls-1" d="M420,313.55a3.17,3.17,0,1,0-3.16-3.17A3.17,3.17,0,0,0,420,313.55Z"/></svg>