<svg id="レイヤー_1" data-name="レイヤー 1" xmlns="http://www.w3.org/2000/svg" viewBox="0 0 841.89 595.28"><defs><style>.cls-1{fill:#e83828;}.cls-2{fill:#fff;}</style></defs><title>日南ハッカソン2&amp;apos;</title><rect class="cls-1" width="841.89" height="595.28"/><path class="cls-2" d="M273.76,408.44a31,31,0,0,0,.32-4.2V390.55a2.78,2.78,0,1,0-2,0v13.69a28.47,28.47,0,0,1-.29,3.8h-.08a5.29,5.29,0,0,0-3,9.63,28.51,28.51,0,0,1-2.81,4.26l-11.72,14.66a3.78,3.78,0,1,0,2.28,3.47,3.69,3.69,0,0,0-.73-2.21l11.73-14.67a29.41,29.41,0,0,0,3.07-4.7,4.84,4.84,0,0,0,1.21.16,5.3,5.3,0,0,0,2.05-10.19Zm-19.33,31.61a1.78,1.78,0,1,1-1.78-1.78l.13,0a1.77,1.77,0,0,1,1.57,1.25A1.7,1.7,0,0,1,254.43,440.05Zm17-23.45a3.28,3.28,0,0,1,0-6.54l.27,0a3.2,3.2,0,0,1,1.68.48,3.29,3.29,0,0,1-1.68,6.12Z"/><path class="cls-2" d="M320.12,435.75c-6.18-16.82-16.48-36.57-20.56-44.17a3.77,3.77,0,1,0-2.61,1.06,3.56,3.56,0,0,0,.86-.11c4.05,7.56,14.29,27.21,20.43,43.9a2.75,2.75,0,0,0-1,2.09,2.79,2.79,0,1,0,2.85-2.77Zm-23.35-45.13a1.62,1.62,0,1,1,.18,0Z"/><path class="cls-2" d="M535.8,393.57h4.14a5.29,5.29,0,0,0,10.39,0h5.17a2.78,2.78,0,1,0,0-2h-5.17a5.29,5.29,0,0,0-10.39,0H535.8a3.78,3.78,0,1,0,0,2Zm-3.62-2.78a1.79,1.79,0,0,1,1.78,1.78,1.82,1.82,0,0,1-.31,1,1.78,1.78,0,1,1-1.47-2.78Zm13-1.52a3.3,3.3,0,1,1-3.12,4.3,3.05,3.05,0,0,1-.18-1,3,3,0,0,1,.18-1A3.27,3.27,0,0,1,545.13,389.27Z"/><path class="cls-2" d="M589.24,399.45a2.77,2.77,0,0,0-2.78,2.78,2.74,2.74,0,0,0,.65,1.76l-10,17.92a41.78,41.78,0,0,1-33.54,21.42l-6.5.47a2.79,2.79,0,1,0,.14,2l6.5-.48a43.76,43.76,0,0,0,35.15-22.44l10-17.91c.12,0,.25,0,.38,0a2.78,2.78,0,0,0,0-5.56Z"/><path class="cls-2" d="M474.6,408a2.78,2.78,0,1,0,2.78-2.78l-.18,0a138.35,138.35,0,0,0-12.29-20.95,2.68,2.68,0,0,0,.44-1.48,2.78,2.78,0,1,0-2.78,2.78,3,3,0,0,0,.74-.11,136.38,136.38,0,0,1,12.07,20.59A2.78,2.78,0,0,0,474.6,408Z"/><path class="cls-2" d="M512.44,377.36a2.78,2.78,0,0,0-1,5.37v5.78A55.31,55.31,0,0,1,504,416.36a5.43,5.43,0,0,0-1.46-.23,5.31,5.31,0,0,0-5.3,5.3,5.19,5.19,0,0,0,1,3.05,56.45,56.45,0,0,1-7.86,7.58L474,445a3.77,3.77,0,1,0,1.55,3,3.84,3.84,0,0,0-.3-1.48l16.37-12.9a58.69,58.69,0,0,0,8.06-7.76,5.24,5.24,0,0,0,2.87.86,5.28,5.28,0,0,0,3.24-9.46,57.21,57.21,0,0,0,7.7-28.76v-5.78a2.78,2.78,0,0,0-1-5.37ZM473.5,448a1.78,1.78,0,1,1-1.78-1.78,1.6,1.6,0,0,1,.53.09,1.76,1.76,0,0,1,1.24,1.57S473.5,448,473.5,448Zm32.3-26.58a3.3,3.3,0,1,1-3.3-3.3c.13,0,.25,0,.38,0a3.31,3.31,0,0,1,2.92,3.26Z"/><path class="cls-2" d="M441.32,392.08a5.3,5.3,0,0,0-5.2,4.29H412.7V377.51a3.78,3.78,0,1,0-2,0v18.86H389.65a2.78,2.78,0,1,0,0,2H410.7V404A47.31,47.31,0,0,1,404,428.22l-9.46,15.83a2.42,2.42,0,0,0-.47-.05,2.78,2.78,0,1,0,2.19,1.07l9.45-15.83a49.25,49.25,0,0,0,7-25.28v-5.59h23.42a5.32,5.32,0,0,0,4.2,4.2v25.25c0,10.63-5.1,17-13.64,17h-2.5a2.78,2.78,0,1,0,0,2h2.5c7.56,0,15.64-5,15.64-19V402.57a5.29,5.29,0,0,0-1-10.49Zm-31.4-18.2a1.78,1.78,0,0,1,3.56,0,1.78,1.78,0,1,1-3.56,0Zm32.4,26.62a3,3,0,0,1-2,0,3.28,3.28,0,0,1-2.13-2.13,3.22,3.22,0,0,1-.17-1,3.3,3.3,0,1,1,4.3,3.13Z"/><path class="cls-2" d="M346.6,417.13a5.3,5.3,0,1,0-5.29,5.3A5.29,5.29,0,0,0,346.6,417.13Zm-2,0a3.3,3.3,0,1,1-3.29-3.29A3.3,3.3,0,0,1,344.6,417.13Z"/><path class="cls-2" d="M367.33,407.52a2.78,2.78,0,0,0-1,5.37v1.17c0,.12.59,11.55-7.9,19.86a133.29,133.29,0,0,1-11.43,9.3,3.73,3.73,0,1,0,1.2,1.61,138.46,138.46,0,0,0,11.63-9.48c9.13-8.94,8.53-20.9,8.5-21.35v-1.11a2.78,2.78,0,0,0-1-5.37Zm-20.88,38.66a1.78,1.78,0,1,1-1.78-1.78,1.73,1.73,0,0,1,.6.11,1.77,1.77,0,0,1,1.18,1.61Z"/><path class="cls-2" d="M356,417.13a2.78,2.78,0,1,0-2.78,2.78A2.79,2.79,0,0,0,356,417.13Z"/><path class="cls-2" d="M325.76,263.72a6.53,6.53,0,0,0,1,.08,6.63,6.63,0,0,0,1-.08,7.13,7.13,0,0,0,6.07-6.07,6.29,6.29,0,0,0,0-2,7.14,7.14,0,0,0-6.07-6.08,6.63,6.63,0,0,0-1-.08,6.53,6.53,0,0,0-1,.08,7.15,7.15,0,0,0-6.08,6.08,6.29,6.29,0,0,0,0,2A7.14,7.14,0,0,0,325.76,263.72Z"/><path class="cls-2" d="M393.71,348.81a7.16,7.16,0,0,0-6.15-7.08V181a12.06,12.06,0,1,0-13-13H303.76a37.84,37.84,0,0,0-37.8,37.8v135a8.15,8.15,0,1,0,9.08,9.09H379.48a7.15,7.15,0,0,0,14.23-1ZM396.62,169a10.09,10.09,0,0,1-9.06,10c-.33,0-.67,0-1,0s-.67,0-1,0a10.1,10.1,0,0,1-9-9c0-.32-.05-.66-.05-1s0-.67.05-1a10.07,10.07,0,0,1,20.08,1ZM268,205.77a35.84,35.84,0,0,1,35.8-35.8h70.78a12.08,12.08,0,0,0,11,11V341.73a7.16,7.16,0,0,0-6.08,6.08H275a8.16,8.16,0,0,0-7.08-7.09Zm5.15,143a5.55,5.55,0,0,1-.09,1,6.15,6.15,0,1,1-7.06-7.07,6.53,6.53,0,0,1,1-.08,6.63,6.63,0,0,1,1,.08,6.16,6.16,0,0,1,5.06,5.07A5.55,5.55,0,0,1,273.11,348.81Z"/><path class="cls-2" d="M283.91,264.8a8.17,8.17,0,0,0,8.09-7.15h14.16a20.65,20.65,0,0,0,19.6,19.6v7.06a8.15,8.15,0,1,0,2,0v-7.06a20.66,20.66,0,0,0,19.6-19.6h15.17a7.16,7.16,0,1,0,0-2H347.36a20.65,20.65,0,0,0-19.6-19.6V228a7.16,7.16,0,1,0-2,0v8.07a20.64,20.64,0,0,0-19.6,19.6H292a8.16,8.16,0,1,0-8.09,9.15Zm0-14.31a6.16,6.16,0,0,1,6.06,5.16,5.47,5.47,0,0,1,.09,1,5.55,5.55,0,0,1-.09,1,6.15,6.15,0,1,1-6.06-7.16Zm24.2,6.16c0-.34,0-.67.05-1a18.63,18.63,0,0,1,17.6-17.6c.33,0,.66-.05,1-.05s.66,0,1,.05a18.65,18.65,0,0,1,17.6,17.6c0,.33.05.66.05,1s0,.66-.05,1a18.66,18.66,0,0,1-17.6,17.6c-.34,0-.67.05-1,.05s-.67,0-1-.05a18.64,18.64,0,0,1-17.6-17.6C308.14,257.31,308.11,257,308.11,256.65Zm18.65,41.9a6.15,6.15,0,0,1-1-12.22,6.52,6.52,0,0,1,1-.09,6.64,6.64,0,0,1,1,.09,6.15,6.15,0,0,1-1,12.22Z"/><path class="cls-2" d="M539.08,257.94a7.16,7.16,0,1,0,0-2h-8.51a1,1,0,0,0,0,2Z"/><path class="cls-2" d="M445.8,290.11a7.16,7.16,0,1,0,0,2h48.66v43.62a7.15,7.15,0,1,0,2,0V292.11h49.83a8.15,8.15,0,1,0,0-2H496.46V257.94h16.88a1,1,0,0,0,.35-.07l.1-.05a.9.9,0,0,0,.2-.14l.09-.07a1,1,0,0,0,.14-.22.35.35,0,0,0,0-.08v0l4.56-12.37a6.79,6.79,0,0,0,1.51.16,7.15,7.15,0,1,0-3.39-.85l-4.31,11.71H485.78a12.06,12.06,0,1,0-13.28,0H449.3a7.15,7.15,0,1,0,0,2h45.16v32.17Zm102.42,1a6.64,6.64,0,0,1,.09-1,6.16,6.16,0,1,1,0,2A6.64,6.64,0,0,1,548.22,291.11Zm-69.08-55.29a10.06,10.06,0,1,1-10.06,10.06A10.07,10.07,0,0,1,479.14,235.82Z"/><path class="cls-2" d="M534.23,345.14a7.15,7.15,0,0,0,7.14-6.84A37.85,37.85,0,0,0,572,301.19V221.64a12.06,12.06,0,1,0-13-13H496.46V169.88H564a7.15,7.15,0,1,0,0-2H496.46V138.72a7.16,7.16,0,1,0-2,0v29.16H428a8.16,8.16,0,1,0,0,2h66.49v38.75H427a7.15,7.15,0,1,0-8.08,8.07V339.54a8.16,8.16,0,1,0,2,0V216.7a7.15,7.15,0,0,0,6.08-6.07H559a12.07,12.07,0,0,0,11,11v79.55a35.85,35.85,0,0,1-28.86,35.11,7.15,7.15,0,1,0-6.94,8.84ZM426,168.88a6.52,6.52,0,0,1-.09,1,6.15,6.15,0,1,1,0-2A6.64,6.64,0,0,1,426,168.88ZM413.73,347.62a6.16,6.16,0,0,1,5.15-6.06,5.55,5.55,0,0,1,1-.09,5.39,5.39,0,0,1,1,.09,6.15,6.15,0,1,1-7.15,6.06ZM561,209.63a8.14,8.14,0,0,1,.06-1,10.06,10.06,0,1,1,11,11c-.33,0-.67.05-1,.05s-.67,0-1-.05a10.08,10.08,0,0,1-9-9A8.39,8.39,0,0,1,561,209.63Z"/></svg>