<svg id="レイヤー_1" data-name="レイヤー 1" xmlns="http://www.w3.org/2000/svg" viewBox="0 0 523.15 121.79"><defs><style>.cls-1{fill:#e83828;}.cls-2{fill:#fff100;}.cls-3{fill:#231815;}.cls-4{fill:#00a0e9;}.cls-5{fill:#e4007f;}.cls-6{fill:#727171;}.cls-7{fill:none;stroke:#231815;stroke-linecap:round;stroke-miterlimit:10;stroke-width:2px;}</style></defs><title>アートボード 10</title><path class="cls-1" d="M37.66,61a1.61,1.61,0,0,0-2,1,1.53,1.53,0,0,0-.08.49,1.62,1.62,0,0,0,1.12,1.53,1.41,1.41,0,0,0,1,0,1.61,1.61,0,0,0,1-1,1.63,1.63,0,0,0,.09-.49,1.52,1.52,0,0,0-.09-.49A1.63,1.63,0,0,0,37.66,61Z"/><path class="cls-1" d="M46.86,61a1.6,1.6,0,0,0-1.53,1.13H42.08a5,5,0,0,0-4.42-4.43V56a1.62,1.62,0,1,0-1,0v1.64a5,5,0,0,0-4.42,4.43H29.52a2.11,2.11,0,1,0,0,1h2.73a5,5,0,0,0,4.42,4.42v1.13a2.12,2.12,0,1,0,1,0V67.48a4.94,4.94,0,0,0,4.42-4.42h3.25A1.61,1.61,0,1,0,46.86,61Zm-5.74,1.62a3.91,3.91,0,0,1,0,.49,4,4,0,0,1-3.43,3.43,4,4,0,0,1-.49,0,4.19,4.19,0,0,1-.5,0,4,4,0,0,1-3.42-3.43,3,3,0,0,1,0-1,4,4,0,0,1,3.42-3.43,4.19,4.19,0,0,1,.5,0,4,4,0,0,1,.49,0,4,4,0,0,1,3.43,3.43A3.91,3.91,0,0,1,41.12,62.57Zm-12.52,0a1.14,1.14,0,0,1-.12.49,1.13,1.13,0,1,1,0-1A1.11,1.11,0,0,1,28.6,62.57Zm9.69,8.09a1.13,1.13,0,1,1-1.62-1,1.06,1.06,0,0,1,.5-.12,1,1,0,0,1,.49.12A1.12,1.12,0,0,1,38.29,70.66Z"/><path class="cls-1" d="M53.69,42.73a3,3,0,0,0-5.95-.49H32a8.83,8.83,0,0,0-8.82,8.82V81.37a2.11,2.11,0,0,0,.5,4.16,2.1,2.1,0,0,0,2-1.62H49.16a1.62,1.62,0,0,0,3.16-.49,1.61,1.61,0,0,0-1.13-1.53V45.68A3,3,0,0,0,53.69,42.73Zm-29,41.18a1.11,1.11,0,0,1-1,.64,1.13,1.13,0,0,1-.5-2.14,1.08,1.08,0,0,1,1,0,1.12,1.12,0,0,1,.51.52,1.06,1.06,0,0,1,0,1Zm25.56-2a1.59,1.59,0,0,0-1,1H25.68a2.1,2.1,0,0,0-1.55-1.56V51.06A7.84,7.84,0,0,1,32,43.22H47.74a3,3,0,0,0,2.46,2.46Zm.5-37.15a2.08,2.08,0,0,1-.5-.07,2,2,0,0,1-1.45-1.45,1.93,1.93,0,0,1-.06-.49,2,2,0,0,1,.06-.49,2,2,0,0,1,4,.49,2.05,2.05,0,0,1-2,2Z"/><path class="cls-1" d="M85.12,63.13a1.62,1.62,0,1,0,0-1h-2a.5.5,0,0,0,0,1Z"/><path class="cls-1" d="M92.28,48.93a3,3,0,0,0-3,2.51H75.67V43.2H90.74a1.62,1.62,0,1,0,0-1H75.67v-6.4a1.62,1.62,0,1,0-1,0v6.4H60.13a2.11,2.11,0,1,0,0,1H74.69v8.24H59.61a1.59,1.59,0,0,0-1.53-1.13,1.61,1.61,0,0,0-.49,3.15V81.1a2.11,2.11,0,1,0,1,0V53.46a1.57,1.57,0,0,0,1-1H89.32a3,3,0,0,0,2.46,2.46V72.64a7.83,7.83,0,0,1-6.34,7.69,1.63,1.63,0,1,0,.09,1,8.82,8.82,0,0,0,7.24-8.67V54.88a3,3,0,0,0-.49-6Zm-34.2-5.09a1.15,1.15,0,1,1,1-.64A1.14,1.14,0,0,1,58.08,43.84Zm1.13,39.31a1.13,1.13,0,1,1-.64-1A1.14,1.14,0,0,1,59.21,83.15ZM92.77,53.87a2,2,0,0,1-.49.07,2.08,2.08,0,0,1-.5-.07,2,2,0,0,1-1.45-1.45,2,2,0,0,1-.06-.49,1.93,1.93,0,0,1,.06-.49,2,2,0,0,1,4,.49A2,2,0,0,1,92.77,53.87Z"/><path class="cls-1" d="M75.67,80.53V70.86H86.46a2.12,2.12,0,1,0,0-1H75.67V63.13h3.56a.53.53,0,0,0,.17,0l0,0,.1-.07,0,0a.61.61,0,0,0,.07-.1l0,0v0l1-2.86h.07a1.62,1.62,0,1,0-1.62-1.62,1.6,1.6,0,0,0,.63,1.27l-.94,2.54H73.7a3,3,0,1,0-4.43,0h-4.6a1.62,1.62,0,1,0,0,1h10v6.74H63.88a1.62,1.62,0,1,0,0,1H74.69v9.67a1.61,1.61,0,0,0,.49,3.15,1.61,1.61,0,0,0,.49-3.15ZM88.51,69.24a1.13,1.13,0,1,1,0,2.25,1.14,1.14,0,0,1-1-.63,1.08,1.08,0,0,1,0-1A1.14,1.14,0,0,1,88.51,69.24Zm-19-9.11a2,2,0,1,1,2,2A2,2,0,0,1,69.48,60.13Z"/><path class="cls-1" d="M110.45,60.3a17.5,17.5,0,0,0,.18-2.4V50.24a1.57,1.57,0,1,0-1,0V57.9a14.8,14.8,0,0,1-.16,2.2h-.11a2.91,2.91,0,0,0-1.62,5.32,14.58,14.58,0,0,1-1.61,2.45l-6.61,8.27a2.1,2.1,0,1,0,.76.62l6.62-8.27a17.28,17.28,0,0,0,1.75-2.67,2.76,2.76,0,0,0,.71.09,2.91,2.91,0,0,0,1.08-5.6ZM99.74,78a1.07,1.07,0,1,1-1.07-1.06.75.75,0,0,1,.21,0,1.09,1.09,0,0,1,.77.61A1.27,1.27,0,0,1,99.74,78Zm9.63-13.07a2.3,2.3,0,0,1-.26,0,2,2,0,0,1-.91-.38,1.91,1.91,0,0,1,1.11-3.43h.06a1.83,1.83,0,0,1,.9.24,1.91,1.91,0,0,1-.9,3.6Z"/><path class="cls-1" d="M136.5,75.57h0a219.55,219.55,0,0,0-11.55-24.81,2,2,0,0,0,.67-1.51,2.05,2.05,0,1,0-2,2.06,1.82,1.82,0,0,0,.52-.08,220.59,220.59,0,0,1,11.49,24.68,1.54,1.54,0,0,0-.6,1.21,1.56,1.56,0,1,0,1.56-1.56Zm-13-25.24a1.07,1.07,0,1,1,1.07-1.07,1.11,1.11,0,0,1-.18.6,1.08,1.08,0,0,1-.87.47Z"/><path class="cls-1" d="M257.53,51.84H260a2.9,2.9,0,0,0,5.72,0h2.94a1.53,1.53,0,0,0,1.47,1.06,1.56,1.56,0,1,0-1.47-2h-2.94a2.9,2.9,0,0,0-5.72,0h-2.43a2.06,2.06,0,1,0,0,1Zm-2-1.56a1.06,1.06,0,0,1,.94.57,1,1,0,0,1,.12.49,1.06,1.06,0,0,1-1.06,1.07,1.07,1.07,0,1,1,0-2.13Zm5.35,1.06a2,2,0,0,1,.07-.49,1.91,1.91,0,0,1,3.7,0,1.79,1.79,0,0,1,0,1,1.92,1.92,0,0,1-3.7,0A2,2,0,0,1,260.9,51.34Z"/><path class="cls-1" d="M287.57,55.21A1.56,1.56,0,0,0,286,56.77a1.54,1.54,0,0,0,.41,1l-5.57,10A23.5,23.5,0,0,1,262,79.9l-3.62.27a1.56,1.56,0,1,0,.07,1l3.62-.27a24.48,24.48,0,0,0,19.67-12.56l5.57-10a2.85,2.85,0,0,0,.29,0,1.56,1.56,0,1,0,0-3.12Z"/><path class="cls-1" d="M223.23,60a1.56,1.56,0,1,0,1.56-1.56l-.17,0a77.14,77.14,0,0,0-6.86-11.7,1.52,1.52,0,0,0,.28-.89,1.56,1.56,0,1,0-1.56,1.56,1.51,1.51,0,0,0,.48-.09,76.74,76.74,0,0,1,6.77,11.53A1.53,1.53,0,0,0,223.23,60Z"/><path class="cls-1" d="M244.47,42.81a1.56,1.56,0,0,0-1.56,1.56A1.54,1.54,0,0,0,244,45.84v3.23a31.09,31.09,0,0,1-4.23,15.7,2.71,2.71,0,0,0-.86-.13,2.9,2.9,0,0,0-2.9,2.9,2.84,2.84,0,0,0,.57,1.72,31.34,31.34,0,0,1-4.46,4.3l-9.23,7.28a2,2,0,0,0-1.25-.43,2.05,2.05,0,1,0,2,2,2,2,0,0,0-.19-.85l9.23-7.28A32.64,32.64,0,0,0,237.27,70a2.9,2.9,0,0,0,3.36-4.73A32,32,0,0,0,245,49.07V45.84A1.54,1.54,0,0,0,246,44.37,1.56,1.56,0,0,0,244.47,42.81ZM222.68,82.46a1.07,1.07,0,1,1-1.06-1.07,1,1,0,0,1,.43.1,1,1,0,0,1,.61.77A.65.65,0,0,1,222.68,82.46Zm18.13-14.92a1.92,1.92,0,0,1-2.9,1.65,2,2,0,0,1-.69-.72,2,2,0,0,1-.25-.93,1.93,1.93,0,0,1,1.92-1.92,1.86,1.86,0,0,1,.33,0,2,2,0,0,1,.9.42A1.89,1.89,0,0,1,240.81,67.54Z"/><path class="cls-1" d="M204.56,51.14a2.89,2.89,0,0,0-2.86,2.41H188.43V42.85a2.06,2.06,0,1,0-1,0v10.7H175.58a1.56,1.56,0,1,0,0,1h11.86v3.2a26.6,26.6,0,0,1-3.77,13.65l-5.29,8.86a1.24,1.24,0,0,0-.33,0,1.58,1.58,0,1,0,1.18.55l5.29-8.87a27.54,27.54,0,0,0,3.91-14.15v-3.2H201.7a2.89,2.89,0,0,0,2.36,2.36V71.13c0,6-2.88,9.6-7.72,9.6H195a1.56,1.56,0,1,0,0,1h1.38c4.21,0,8.71-2.78,8.71-10.58V56.9a2.9,2.9,0,0,0-.49-5.76ZM186.87,40.86a1.05,1.05,0,1,1,1.06,1.07,1.09,1.09,0,0,1-1.06-1.07Zm18.18,15a1.79,1.79,0,0,1-1,0,1.92,1.92,0,0,1-1.35-1.35,2.08,2.08,0,0,1-.07-.5,2,2,0,0,1,.07-.49,1.92,1.92,0,1,1,2.34,2.34Z"/><path class="cls-1" d="M151.33,65.13a2.91,2.91,0,1,0-2.9,2.91A2.9,2.9,0,0,0,151.33,65.13Zm-2.9-1.92a1.92,1.92,0,1,1-1.92,1.92A1.93,1.93,0,0,1,148.43,63.21Z"/><path class="cls-1" d="M163,59.74a1.55,1.55,0,0,0-.49,3v.63a15.88,15.88,0,0,1-4.45,11.2,77.61,77.61,0,0,1-6.47,5.26,2,2,0,1,0,.59.79,75,75,0,0,0,6.56-5.35,16.49,16.49,0,0,0,4.75-11.92v-.61a1.55,1.55,0,0,0-.49-3ZM151.38,81.43a1.07,1.07,0,1,1-1.06-1.06,1.06,1.06,0,0,1,1.05.91A.76.76,0,0,1,151.38,81.43Z"/><path class="cls-1" d="M155.12,66.69a1.56,1.56,0,1,0-1.56-1.56A1.56,1.56,0,0,0,155.12,66.69Z"/><polygon class="cls-2" points="389.22 30.39 381.63 30.39 377.88 30.39 377.88 38.81 389.22 38.81 389.22 34.87 389.22 30.39"/><path class="cls-3" d="M389.22,39.56H377.88a.75.75,0,0,1-.75-.75V30.38a.75.75,0,0,1,.75-.75h11.34a.75.75,0,0,1,.75.75v8.43A.75.75,0,0,1,389.22,39.56Zm-10.59-1.5h9.84V31.14h-9.84Z"/><polygon class="cls-2" points="389.22 47.13 372.11 47.13 368.36 47.13 368.36 54.71 381.27 54.71 381.27 87.33 389.22 87.33 389.22 83.39 389.22 47.13"/><path class="cls-3" d="M389.22,88.08h-8a.76.76,0,0,1-.75-.75V55.46H368.36a.75.75,0,0,1-.75-.75V47.13a.75.75,0,0,1,.75-.75h20.86a.75.75,0,0,1,.75.75v40.2A.75.75,0,0,1,389.22,88.08Zm-7.2-1.5h6.45V47.88H369.11V54h12.16a.74.74,0,0,1,.75.75Z"/><path class="cls-2" d="M451,61.16q0-6.7-4.08-10.72t-10.91-4a17.7,17.7,0,0,0-13.12,5.3v-4.6h-7.5v40.2h7.5V65.47a12.3,12.3,0,0,1,3.37-9,11.42,11.42,0,0,1,2-1.62A12.6,12.6,0,0,1,435.17,53a8.8,8.8,0,0,1,6.17,2,7.16,7.16,0,0,1,2.19,5.56V87.33H451V61.16Z"/><path class="cls-3" d="M451,88.08h-7.5a.76.76,0,0,1-.75-.75V60.58a6.4,6.4,0,0,0-1.95-5,8.13,8.13,0,0,0-5.66-1.81,11.87,11.87,0,0,0-6.47,1.71,10.17,10.17,0,0,0-1.87,1.5,11.64,11.64,0,0,0-3.16,8.5V87.33a.76.76,0,0,1-.75.75h-7.5a.76.76,0,0,1-.75-.75V47.13a.76.76,0,0,1,.75-.75h7.5a.76.76,0,0,1,.75.75V50A18.59,18.59,0,0,1,436,45.68c4.74,0,8.58,1.42,11.43,4.23s4.31,6.6,4.31,11.25V87.33A.76.76,0,0,1,451,88.08Zm-6.75-1.5h6V61.16c0-4.24-1.29-7.66-3.85-10.18s-6.05-3.8-10.38-3.8a17.11,17.11,0,0,0-12.59,5.07.74.74,0,0,1-.82.17.75.75,0,0,1-.46-.69V47.88h-6v38.7h6V65.47a13.06,13.06,0,0,1,3.59-9.55,11.21,11.21,0,0,1,2.14-1.72,13.36,13.36,0,0,1,7.27-1.94,9.59,9.59,0,0,1,6.68,2.2,7.94,7.94,0,0,1,2.43,6.12Z"/><path class="cls-2" d="M499.21,78.26a17.27,17.27,0,0,1-4.49,2.26,14.64,14.64,0,0,1-4.74.93,5.28,5.28,0,0,1-4.35-1.89,8.19,8.19,0,0,1-1.53-5.31v-21h15.11V46.68H484.1V36.29h-7.49v10.4h-8.32v6.54h8.32V73.5q0,7.13,3.37,10.83t9.83,3.7a16.9,16.9,0,0,0,9.4-2.36V78.26Z"/><path class="cls-3" d="M489.81,88.78c-4.5,0-8-1.33-10.38-4s-3.57-6.41-3.57-11.33V54h-7.57a.75.75,0,0,1-.75-.75V46.68a.75.75,0,0,1,.75-.76h7.57V36.28a.75.75,0,0,1,.75-.75h7.49a.74.74,0,0,1,.75.75v9.63h14.36a.75.75,0,0,1,.75.76v6.54a.75.75,0,0,1-.75.75H484.85V74.25a7.56,7.56,0,0,0,1.36,4.84A4.54,4.54,0,0,0,490,80.7a13.94,13.94,0,0,0,4.49-.89,16.76,16.76,0,0,0,4.3-2.16.75.75,0,0,1,1.19.61v7.41a.77.77,0,0,1-.34.63A17.64,17.64,0,0,1,489.81,88.78ZM469,52.47h7.57a.75.75,0,0,1,.75.75V73.5c0,4.53,1.07,8,3.18,10.32s5.21,3.46,9.27,3.46a16.65,16.65,0,0,0,8.65-2V79.64A20.15,20.15,0,0,1,495,81.23c-4.52,1.57-8,1.24-9.92-1.19a9,9,0,0,1-1.7-5.79v-21a.75.75,0,0,1,.75-.75h14.36v-5H484.1a.76.76,0,0,1-.75-.75V37h-6v9.65a.76.76,0,0,1-.75.75H469Z"/><path class="cls-4" d="M490,81.45a14.64,14.64,0,0,0,4.74-.93,17.27,17.27,0,0,0,4.49-2.26L503,74.32a17.27,17.27,0,0,1-4.49,2.25,14.42,14.42,0,0,1-4.74.94,5.27,5.27,0,0,1-4.34-1.89l-3.76,3.94A5.28,5.28,0,0,0,490,81.45Z"/><path class="cls-3" d="M490,82.2A6,6,0,0,1,485.05,80a.75.75,0,0,1,0-1l3.75-4a.79.79,0,0,1,.58-.23.76.76,0,0,1,.55.28,4.54,4.54,0,0,0,3.76,1.61,14,14,0,0,0,4.5-.89,16.68,16.68,0,0,0,4.29-2.16.76.76,0,0,1,1,.11.76.76,0,0,1,0,1l-3.76,3.94-.1.09A18.44,18.44,0,0,1,495,81.23,15.57,15.57,0,0,1,490,82.2Zm-3.31-2.63c1.6,1.46,4.29,1.46,7.8.24a16.77,16.77,0,0,0,4.24-2.12l.6-.62-.59.21c-4.1,1.44-7.31,1.3-9.34-.57Z"/><polygon class="cls-4" points="377.88 30.39 381.63 30.39 389.22 30.39 392.98 26.44 381.63 26.44 377.88 30.39"/><path class="cls-3" d="M389.22,31.14H377.88a.76.76,0,0,1-.55-1.27l3.76-3.94a.75.75,0,0,1,.54-.24H393a.76.76,0,0,1,.55,1.27l-3.76,3.94A.73.73,0,0,1,389.22,31.14Zm-9.59-1.51h9.27l2.32-2.44H382Z"/><polygon class="cls-4" points="422.92 47.13 426.67 43.19 419.18 43.19 415.42 47.13 419.18 47.13 422.92 47.13"/><path class="cls-3" d="M422.92,47.88h-7.5a.76.76,0,0,1-.69-.45.77.77,0,0,1,.15-.82l3.75-3.94a.76.76,0,0,1,.55-.23h7.49a.76.76,0,0,1,.69.45.77.77,0,0,1-.14.82l-3.76,3.94A.74.74,0,0,1,422.92,47.88Zm-5.74-1.5h5.42l2.32-2.44H419.5Z"/><polygon class="cls-4" points="368.36 47.13 372.11 47.13 389.22 47.13 392.98 43.19 372.11 43.19 368.36 47.13"/><path class="cls-3" d="M389.22,47.88H368.36a.75.75,0,0,1-.69-.45.77.77,0,0,1,.14-.82l3.76-3.94a.74.74,0,0,1,.54-.23H393a.75.75,0,0,1,.55,1.27l-3.76,3.94A.73.73,0,0,1,389.22,47.88Zm-19.11-1.5H388.9l2.32-2.44H372.43Z"/><polygon class="cls-4" points="476.61 46.67 476.61 42.73 472.04 42.73 468.29 46.67 472.04 46.67 476.61 46.67"/><path class="cls-3" d="M476.61,47.43h-8.32a.76.76,0,0,1-.55-1.27l3.76-3.94A.75.75,0,0,1,472,42h4.57a.76.76,0,0,1,.75.75v4A.76.76,0,0,1,476.61,47.43ZM470,45.92h5.82V43.48h-3.5Z"/><polygon class="cls-4" points="484.1 36.29 487.86 32.34 480.36 32.34 476.61 36.28 480.36 36.28 484.1 36.29"/><path class="cls-3" d="M484.1,37h-7.49a.76.76,0,0,1-.69-.45.77.77,0,0,1,.14-.82l3.76-3.94a.74.74,0,0,1,.54-.23h7.5a.76.76,0,0,1,.54,1.27l-3.76,3.94A.73.73,0,0,1,484.1,37Zm-5.74-1.51h5.42l2.32-2.45h-5.42Z"/><polygon class="cls-4" points="499.21 46.67 502.96 42.73 487.86 42.73 484.1 46.67 499.21 46.67"/><path class="cls-3" d="M499.21,47.43H484.1a.75.75,0,0,1-.69-.46.74.74,0,0,1,.15-.81l3.75-3.94a.75.75,0,0,1,.54-.24H503a.76.76,0,0,1,.55,1.27l-3.76,3.94A.73.73,0,0,1,499.21,47.43Zm-13.36-1.51h13l2.32-2.44h-13Z"/><path class="cls-4" d="M450.7,46.5q-4.08-4-10.91-4a17.74,17.74,0,0,0-13.12,5.29l-3.75,3.95A17.7,17.7,0,0,1,436,46.43q6.82,0,10.91,4T451,61.16l3.75-3.94Q454.78,50.52,450.7,46.5Z"/><path class="cls-3" d="M451,61.92a.67.67,0,0,1-.28-.06.75.75,0,0,1-.48-.7c0-4.24-1.29-7.66-3.85-10.18s-6.05-3.8-10.38-3.8a17.11,17.11,0,0,0-12.59,5.07.75.75,0,0,1-1.08-1l3.76-3.94a18.52,18.52,0,0,1,13.66-5.54c4.74,0,8.59,1.43,11.44,4.24h0c2.85,2.81,4.3,6.6,4.3,11.25a.72.72,0,0,1-.21.52l-3.75,3.94A.77.77,0,0,1,451,61.92ZM436,45.68c4.74,0,8.58,1.42,11.43,4.23a14.57,14.57,0,0,1,4.23,9.46L454,56.92A13.58,13.58,0,0,0,450.17,47h0c-2.57-2.53-6.06-3.8-10.39-3.8A17.21,17.21,0,0,0,428.61,47,20,20,0,0,1,436,45.68Z"/><polygon class="cls-5" points="389.22 34.87 389.22 38.81 392.98 34.87 392.98 26.44 389.22 30.39 389.22 34.87"/><path class="cls-3" d="M389.22,39.56a.92.92,0,0,1-.28-.05.76.76,0,0,1-.47-.7V30.38a.71.71,0,0,1,.21-.51l3.75-3.94a.73.73,0,0,1,.82-.18.74.74,0,0,1,.48.69v8.43a.78.78,0,0,1-.21.52l-3.76,3.94A.74.74,0,0,1,389.22,39.56Zm.75-8.88v6.25l2.25-2.36V28.32Z"/><path class="cls-5" d="M422.92,65.47V87.33l3.75-4V61.53a13.27,13.27,0,0,1,1.63-6.7,11.42,11.42,0,0,0-2,1.62A12.3,12.3,0,0,0,422.92,65.47Z"/><path class="cls-3" d="M422.92,88.08a.67.67,0,0,1-.28-.06.74.74,0,0,1-.47-.69V65.47a13.06,13.06,0,0,1,3.59-9.55,11.21,11.21,0,0,1,2.14-1.72.75.75,0,0,1,1.05,1,12.7,12.7,0,0,0-1.53,6.33V83.38a.75.75,0,0,1-.2.52l-3.76,3.94A.71.71,0,0,1,422.92,88.08Zm3.53-30.7a11.76,11.76,0,0,0-2.78,8.09v20l2.25-2.37V61.53A15.72,15.72,0,0,1,426.45,57.38Z"/><polygon class="cls-5" points="422.92 51.73 426.67 47.78 426.67 43.19 422.92 47.13 422.92 51.73"/><path class="cls-3" d="M422.92,52.48a.67.67,0,0,1-.28-.06.74.74,0,0,1-.47-.69v-4.6a.77.77,0,0,1,.2-.52l3.76-3.94a.76.76,0,0,1,.82-.18.75.75,0,0,1,.47.7v4.59a.75.75,0,0,1-.2.52l-3.76,3.94A.71.71,0,0,1,422.92,52.48Zm.75-5v2.42l2.25-2.37V45.07Z"/><polygon class="cls-5" points="389.22 83.39 389.22 87.33 392.98 83.39 392.98 43.19 389.22 47.13 389.22 83.39"/><path class="cls-3" d="M389.22,88.08a.71.71,0,0,1-.28-.06.75.75,0,0,1-.47-.69V47.13a.73.73,0,0,1,.21-.52l3.75-3.94a.76.76,0,0,1,1.3.52V83.38a.76.76,0,0,1-.21.52l-3.76,3.94A.71.71,0,0,1,389.22,88.08ZM390,47.43v38l2.25-2.37v-38Z"/><polygon class="cls-5" points="499.21 83.38 499.21 85.67 502.96 81.73 502.96 74.32 499.21 78.26 499.21 83.38"/><path class="cls-3" d="M499.21,86.42a.92.92,0,0,1-.28,0,.76.76,0,0,1-.47-.7V78.26a.73.73,0,0,1,.21-.52l3.75-3.94a.76.76,0,0,1,1.3.52v7.41a.78.78,0,0,1-.21.52l-3.76,3.94A.74.74,0,0,1,499.21,86.42Zm.75-7.86v5.23l2.25-2.36V76.2Z"/><path class="cls-5" d="M484.1,53.22v21a8.19,8.19,0,0,0,1.53,5.31l3.76-3.94a8.17,8.17,0,0,1-1.54-5.32V53.22Z"/><path class="cls-3" d="M485.63,80.32h0a.72.72,0,0,1-.55-.27,9,9,0,0,1-1.7-5.79v-21a.75.75,0,0,1,.75-.75h3.75a.75.75,0,0,1,.76.75V70.3A7.51,7.51,0,0,0,490,75.15a.75.75,0,0,1,0,1l-3.75,3.94A.77.77,0,0,1,485.63,80.32ZM484.85,54V74.25a8.53,8.53,0,0,0,.88,4.12l2.68-2.81a9.53,9.53,0,0,1-1.31-5.26V54Z"/><polygon class="cls-5" points="499.21 49.27 499.21 53.22 502.96 49.27 502.96 42.73 499.21 46.67 499.21 49.27"/><path class="cls-3" d="M499.21,54a.71.71,0,0,1-.28-.06.75.75,0,0,1-.47-.69V46.68a.72.72,0,0,1,.21-.52l3.75-3.94a.73.73,0,0,1,.82-.18.74.74,0,0,1,.48.69v6.54a.76.76,0,0,1-.21.52l-3.76,3.94A.71.71,0,0,1,499.21,54Zm.75-7v4.36L502.21,49V44.61Z"/><polygon class="cls-5" points="484.1 46.67 487.86 42.73 487.86 32.34 484.1 36.29 484.1 46.67"/><path class="cls-3" d="M484.1,47.43a.71.71,0,0,1-.28-.06.75.75,0,0,1-.47-.69V36.29a.72.72,0,0,1,.21-.52l3.75-3.94a.76.76,0,0,1,.82-.18.74.74,0,0,1,.48.69V42.73a.76.76,0,0,1-.21.52l-3.76,3.94A.75.75,0,0,1,484.1,47.43Zm.75-10.84V44.8l2.25-2.37V34.22Z"/><polygon class="cls-5" points="451.02 61.16 451.02 83.39 451.02 87.33 454.78 83.39 454.78 57.22 451.02 61.16"/><path class="cls-3" d="M451,88.08a.67.67,0,0,1-.28-.06.74.74,0,0,1-.48-.69V61.16a.75.75,0,0,1,.21-.51l3.76-3.95a.76.76,0,0,1,.82-.18.77.77,0,0,1,.47.7V83.38a.72.72,0,0,1-.21.52l-3.75,3.94A.73.73,0,0,1,451,88.08Zm.75-26.62v24L454,83.08v-24Z"/><path class="cls-6" d="M379.75,97.1H374.4v1.18h-.64V96.57h3V95.38h.65v1.19h3v1.71h-.62Zm-2.5,2.71c0,.12-.08.25-.13.38s-.09.25-.13.36h2.92v2.63h-.61v-.44h-4.42v.44h-.59v-2.63h2.11a3.19,3.19,0,0,0,.13-.37c0-.13.07-.25.1-.37h-1.77V97.89h4.42v1.92Zm-2.37,1.26v1.15h4.42v-1.15Zm.56-2.68v.92h3.26v-.92Z"/><path class="cls-6" d="M384.83,98.74h4.58v.54h-.69v3.26c0,.26-.05.43-.16.51a.88.88,0,0,1-.52.13l-.53,0-.53,0-.09-.61a4.43,4.43,0,0,0,.51.06,4.58,4.58,0,0,0,.53,0c.16,0,.24-.09.24-.26V99.28h-3.34v2.57h-2v.62h-.53V97h.53v4.3h.49V95.55h.52v5.75h.49V97h.54ZM389,96.32v.52h-1.84l0,.18h0c.33.16.64.33.94.5s.6.37.89.57l-.41.48c-.26-.2-.52-.4-.78-.58s-.53-.36-.81-.53a2.17,2.17,0,0,1-.64.74,3.48,3.48,0,0,1-.88.45l-.35-.48a2.47,2.47,0,0,0,.95-.46,1.58,1.58,0,0,0,.55-.87h-1.5v-.52h1.56v-.93h.57v.93Zm-3.55,5.92V99.81h2.07v1.91H386v.52Zm1.53-1.95h-1v1h1Z"/><path class="cls-6" d="M399.09,100.89v1.56a.58.58,0,0,1-.23.54,1,1,0,0,1-.6.16l-.62,0-.61-.07-.11-.67a4.48,4.48,0,0,0,.62.11c.2,0,.41,0,.61,0s.3-.1.3-.32v-1.32h-3.4v-.56h3.37v-.62c.25-.1.49-.21.75-.34a7,7,0,0,0,.71-.42h-3.37V98.4h4.2l.34.35a8.05,8.05,0,0,1-1,.68,9.55,9.55,0,0,1-1,.58h0v.32h3.35v.56ZM396.79,97c-.1-.2-.19-.39-.27-.58a3.49,3.49,0,0,0-.29-.58l.57-.27a5.27,5.27,0,0,1,.38.63c.1.21.2.42.28.63l-.55.23h2.75c.17-.25.32-.51.48-.78a9.25,9.25,0,0,0,.42-.83l.65.31c-.12.21-.25.43-.39.64s-.3.44-.46.66h1.69V99h-.61V97.62H396V99h-.6V97.09h1.38Zm1.7,0c-.08-.22-.16-.45-.26-.67a4.88,4.88,0,0,0-.32-.65l.58-.25a7,7,0,0,1,.36.65c.1.22.19.44.27.67l-.62.25Z"/><path class="cls-6" d="M407.79,97.4h2.54V98h-2.54v1.73H410v.57h-2.22v2h3v.56h-6.6v-.56h3v-2h-2.11v-.57h2.11V98h-1.7c-.11.23-.23.47-.37.72a7.61,7.61,0,0,1-.47.73l-.46-.48a5.32,5.32,0,0,0,.79-1.37,10.12,10.12,0,0,0,.46-1.54l.6.17c0,.19-.1.39-.15.6l-.18.61h1.48V95.47h.63Z"/><path class="cls-6" d="M415.22,96.78c.07-.23.13-.46.19-.69s.09-.47.12-.71l.72.16c-.05.2-.11.41-.18.62s-.15.42-.23.62h3.42v5.51a1,1,0,0,1-.06.38.47.47,0,0,1-.17.22.55.55,0,0,1-.27.1,2.09,2.09,0,0,1-.38,0c-.43,0-.86,0-1.27,0l-.16-.68.66.08c.21,0,.43,0,.65,0s.36-.13.36-.39V97.33h-5.15v5.85h-.63v-6.4Zm-.79,5V98.46h3.17v2.7H415v.61ZM417,99h-2v1.62h2Z"/><path class="cls-6" d="M422.58,102.31c-.15-.19-.27-.35-.36-.49a1.77,1.77,0,0,1-.21-.41,2.07,2.07,0,0,1-.1-.46c0-.17,0-.37,0-.62V96.42h.62v4c0,.19,0,.35,0,.47a1.14,1.14,0,0,0,.08.33,1.59,1.59,0,0,0,.17.31c.07.11.17.25.29.41ZM428,97.66v.55h-1.34v1.47c0,.48,0,.87,0,1.17a3.33,3.33,0,0,1-.13.78,1.83,1.83,0,0,1-.35.62,6,6,0,0,1-.71.66l-.47-.43c.25-.22.44-.41.58-.56a1.7,1.7,0,0,0,.31-.51,2.39,2.39,0,0,0,.11-.66c0-.27,0-.62,0-1.07V98.21h-2.31v-.55H426V95.92h.65v1.74Z"/><path class="cls-6" d="M432.43,98.55a3.23,3.23,0,0,1-.1.88,2.85,2.85,0,0,1-.33.74,7.07,7.07,0,0,1-.62.82l-.95,1.1-.53-.45.92-1.08a6,6,0,0,0,.55-.73,2,2,0,0,0,.28-.6,2.73,2.73,0,0,0,.07-.68V97.07h.71Zm3.66,3.33c-.27-.68-.52-1.28-.75-1.81l-.63-1.36c-.19-.38-.34-.68-.47-.91s-.21-.38-.26-.45l.61-.34c.07.12.18.3.31.54l.48.94c.18.38.39.83.62,1.35s.48,1.1.74,1.77Z"/><path class="cls-6" d="M440,97.59h.65v2H440Zm.52,4.58a16.94,16.94,0,0,0,1.47-1.1,4.59,4.59,0,0,0,.89-1,2.94,2.94,0,0,0,.43-1,6.13,6.13,0,0,0,.11-1.2v-.3H444v.3a6.31,6.31,0,0,1-.14,1.38,3.26,3.26,0,0,1-.5,1.13,5.22,5.22,0,0,1-1,1.07,17.2,17.2,0,0,1-1.57,1.18Zm1-4.58h.66v2h-.66Z"/><path class="cls-6" d="M453.22,101.05a3.32,3.32,0,0,1-.11.58,1.72,1.72,0,0,1-.32.59,1.25,1.25,0,0,1-.46.31,1.82,1.82,0,0,1-.57.13c-.21,0-.42,0-.66,0v-.63a3.73,3.73,0,0,0,.65,0,1.13,1.13,0,0,0,.38-.12.55.55,0,0,0,.2-.2q.06-.12.12-.27a2.15,2.15,0,0,0,.09-.43c0-.17,0-.43,0-.77v-2h-2.06v.05c0,.3,0,.56,0,.8a4.55,4.55,0,0,1-.1.66,4.69,4.69,0,0,1-.2.6c-.08.19-.19.4-.31.63s-.27.47-.45.75l-.6,1-.55-.37.58-.91.42-.7c.11-.21.21-.4.28-.57a2.85,2.85,0,0,0,.18-.54,4.89,4.89,0,0,0,.09-.59c0-.2,0-.44,0-.71v-.05h-1.93V97.6h1.94V95.74h.67V97.6h2.72v2.62C453.26,100.56,453.24,100.84,453.22,101.05Z"/><path class="cls-6" d="M458,99c-.13-.24-.24-.48-.35-.69s-.21-.42-.31-.61l-.32-.55-.33-.49.54-.31a10.39,10.39,0,0,1,.74,1.13c.22.37.43.79.65,1.25Zm3.9-2.1a6.4,6.4,0,0,1-.22,1.77,4.67,4.67,0,0,1-.71,1.43,7.28,7.28,0,0,1-1.21,1.31c-.49.42-1.07.88-1.75,1.36l-.42-.54c.64-.47,1.2-.9,1.65-1.3a7.23,7.23,0,0,0,1.12-1.2,4.13,4.13,0,0,0,.63-1.28,5.6,5.6,0,0,0,.2-1.55v-.63h.71Z"/><path class="cls-6" d="M467.91,96.76v.66H465.5v-.66Zm3.16,1.75-.69,1.26a11.1,11.1,0,0,1-.65,1,4.49,4.49,0,0,1-.69.79,3.42,3.42,0,0,1-.84.56,4.19,4.19,0,0,1-1.07.33,8.11,8.11,0,0,1-1.4.11v-.64a8.11,8.11,0,0,0,1.18-.08,3.66,3.66,0,0,0,.9-.27,3,3,0,0,0,.72-.48,4,4,0,0,0,.62-.71,11.07,11.07,0,0,0,.61-1c.21-.37.44-.78.69-1.25Z"/><path class="cls-6" d="M478.83,96.55a2.23,2.23,0,0,1-.28.61,4.25,4.25,0,0,1-.5.59,7.29,7.29,0,0,1-.74.62v4.56h-.67v-4l-.51.36-.58.39-.68.45-.79.53-.37-.56,2-1.29a16.31,16.31,0,0,0,1.42-1,4.35,4.35,0,0,0,.85-.91,1.7,1.7,0,0,0,.29-.94h.67A2,2,0,0,1,478.83,96.55Z"/><path class="cls-6" d="M482.56,100.71l-.56-.41L484.44,97l4.35,4.11-.52.56L484.51,98ZM487,97.93h-.51V96.58H487Zm1.07,0h-.51V96.59H488Z"/><path class="cls-6" d="M493.89,96.76v.66h-2.4v-.66Zm3.16,1.75q-.36.69-.69,1.26a11.12,11.12,0,0,1-.64,1,4.53,4.53,0,0,1-.7.79,3.08,3.08,0,0,1-.84.56,4.07,4.07,0,0,1-1.07.33,8,8,0,0,1-1.39.11v-.64a8.06,8.06,0,0,0,1.17-.08,3.89,3.89,0,0,0,.91-.27,3.47,3.47,0,0,0,.72-.48,4.44,4.44,0,0,0,.62-.71,11.07,11.07,0,0,0,.61-1c.2-.37.44-.78.69-1.25Z"/><path class="cls-6" d="M503.54,99.15c.52.3,1.06.63,1.63,1l-.38.57c-.26-.19-.51-.37-.76-.53s-.48-.31-.72-.45l-.69-.4-.69-.38v3.88h-.67V95.75h.67V98.3C502.49,98.56,503,98.85,503.54,99.15Z"/><line class="cls-7" x1="316.91" y1="55.77" x2="339.83" y2="78.69"/><line class="cls-7" x1="339.83" y1="55.77" x2="316.91" y2="78.69"/></svg>